<svg
  id="Layer_1"
  xmlns="http://www.w3.org/2000/svg"
  view-box="0 0 199.02 39.03"
>
  <title>rewire logo1</title>
  <path
    d="M82.81,32.45H79.3a.76.76,0,0,1-.66-.39l-5-9.21a.76.76,0,0,0-.66-.39H69.15a.76.76,0,0,0-.76.76h0v8.51a.76.76,0,0,1-.76.76H64.22a.76.76,0,0,1-.76-.76V6.28a.76.76,0,0,1,.76-.76H73.3q9.25,0,9.25,7.77A8.42,8.42,0,0,1,81.35,18a10.27,10.27,0,0,1-2.82,2.79.76.76,0,0,0-.25,1l5.2,9.55a.76.76,0,0,1-.67,1.11ZM72.2,9.63h-3a.76.76,0,0,0-.76.76h0v6.68a.76.76,0,0,0,.76.76H72q3.12,0,4.27-1.08a4.05,4.05,0,0,0,1.15-3.12,3.82,3.82,0,0,0-1.12-3Q75.2,9.63,72.2,9.63Zm32.21,22.81H88.31a.76.76,0,0,1-.76-.76h0V6.28a.76.76,0,0,1,.76-.76H104a.76.76,0,0,1,.76.76h0V9.53a.76.76,0,0,1-.76.76H93.42a.76.76,0,0,0-.76.76h0v4.22a.76.76,0,0,0,.76.76h7.87a.76.76,0,0,1,.76.76h0V20a.76.76,0,0,1-.76.76H93.42a.76.76,0,0,0-.76.76h0v5.37a.76.76,0,0,0,.76.76h11a.76.76,0,0,1,.76.76h0v3.29a.76.76,0,0,1-.77.72Zm38.27-26-7.15,25.42a.76.76,0,0,1-.73.55h-3.23a.76.76,0,0,1-.72-.52L125,14.49l-5.77,17.44a.76.76,0,0,1-.72.52H115a.76.76,0,0,1-.73-.55L107.1,6.48a.76.76,0,0,1,.73-1h3.54a.76.76,0,0,1,.73.55l5.23,18.57L123.17,6a.76.76,0,0,1,.72-.53h2.33a.76.76,0,0,1,.72.52L133,24.14l5-18.07a.76.76,0,0,1,.73-.56H142a.76.76,0,0,1,.68,1Zm7.94,26h-3.41a.76.76,0,0,1-.76-.76V6.28a.76.76,0,0,1,.76-.76h3.41a.76.76,0,0,1,.76.76V31.73a.76.76,0,0,1-.76.72Zm26,0H173.1a.76.76,0,0,1-.66-.39l-5-9.21a.76.76,0,0,0-.66-.39H163a.76.76,0,0,0-.76.76v8.52a.76.76,0,0,1-.76.76h-3.41a.76.76,0,0,1-.76-.76V6.28a.76.76,0,0,1,.76-.76h9.07q9.25,0,9.25,7.77a8.42,8.42,0,0,1-1.2,4.71,10.27,10.27,0,0,1-2.82,2.79.76.76,0,0,0-.25,1l5.2,9.55a.76.76,0,0,1-.67,1.11ZM166,9.63h-3a.76.76,0,0,0-.76.76v6.68a.76.76,0,0,0,.76.76h2.86q3.12,0,4.27-1.08a4,4,0,0,0,1.15-3.12,3.82,3.82,0,0,0-1.12-3Q169,9.63,166,9.63Zm32.21,22.81H182.14a.76.76,0,0,1-.76-.76V6.28a.76.76,0,0,1,.76-.76h15.72a.76.76,0,0,1,.76.76V9.53a.76.76,0,0,1-.76.76h-10.6a.76.76,0,0,0-.76.76v4.22a.76.76,0,0,0,.76.76h7.87a.76.76,0,0,1,.76.76V20a.76.76,0,0,1-.76.76h-7.87a.76.76,0,0,0-.76.76v5.37a.76.76,0,0,0,.76.76h11a.76.76,0,0,1,.76.76v3.29a.76.76,0,0,1-.78.72ZM46.5,14.92a16.83,16.83,0,0,0-3-1.31,19.52,19.52,0,0,0-37.22,0,16.8,16.8,0,0,0-3,1.3C.56,16.46,0,18.31,0,19.6a4.31,4.31,0,0,0,.11,1,1,1,0,0,0,.08.28,4.58,4.58,0,0,0,.24.63l.11.22a5.12,5.12,0,0,0,.37.59L1,22.4a6,6,0,0,0,.56.64l.11.11a5.28,5.28,0,0,0,.46.4l.09.07c.18.14.36.27.56.4h0a12,12,0,0,0,1.4.71,3,3,0,0,0,2,.21,19.52,19.52,0,0,0,37.48,0,3,3,0,0,0,1.94-.21A12.22,12.22,0,0,0,47,24h0c.2-.13.38-.26.55-.39l.1-.08a5.41,5.41,0,0,0,.5-.44l.07-.06a6,6,0,0,0,.55-.62l.07-.1a5.1,5.1,0,0,0,.38-.6l.11-.22a4.63,4.63,0,0,0,.24-.65,1.21,1.21,0,0,1,.08-.28,4.26,4.26,0,0,0,.11-1C49.72,18.31,49.16,16.46,46.5,14.92Zm.18,5V20a1.58,1.58,0,0,1-.08.22v.08a2.08,2.08,0,0,1-.17.27h0a2.88,2.88,0,0,1-.26.3h0l-.29.25h-.06l-.38.27h0a9,9,0,0,1-1,.55h0a6.5,6.5,0,0,0,.42-1.07.85.85,0,0,0-.33-.58h0a7.59,7.59,0,0,0-3-1.24,15.68,15.68,0,0,1-9.28,14.67c-.74.34-1,.07-.45-.57a21.44,21.44,0,0,0,4.56-14.9,99.43,99.43,0,0,0-11.44-.53H24.8c-9.69,0-17.74,1.17-19.43,2.7h0A.85.85,0,0,0,5,21a6.5,6.5,0,0,0,.42,1.07h0a9,9,0,0,1-1-.55h0L4,21.22H3.94L3.65,21h0a2.88,2.88,0,0,1-.26-.3h0a2.07,2.07,0,0,1-.17-.27v-.08a1.58,1.58,0,0,1-.08-.22V20a1.35,1.35,0,0,1,0-.3c0-.74.61-1.44,1.72-2.08,2.63-1.52,8-2.68,14.68-3.09,1-.07,2.13-.11,3.23-.14h4.46c1.1,0,2.18.07,3.23.14,2,.12,3.8.31,5.5.55a21.57,21.57,0,0,0-.68-2.3,21.3,21.3,0,0,0-4.36-7.21.38.38,0,0,1,.41-.6,15.64,15.64,0,0,1,9.23,9.36,15.8,15.8,0,0,1,.51,1.75A17.18,17.18,0,0,1,45,17.52c1.11.64,1.72,1.34,1.72,2.08a1.35,1.35,0,0,1,0,.3Z"
    transform="translate(0 0.02)"
  />
</svg>
